<mxfile host="app.diagrams.net" modified="2020-06-18T17:36:28.356Z" agent="5.0 (Windows NT 10.0; Win64; x64) AppleWebKit/537.36 (KHTML, like Gecko) Chrome/83.0.4103.97 Safari/537.36" etag="GU0yUoQIpYtfA9JtTFYt" version="13.2.6" type="github">
  <diagram id="mM8BfhB0ug2EMRv0EJna" name="Page-1">
    <mxGraphModel dx="509" dy="577" grid="1" gridSize="10" guides="1" tooltips="1" connect="1" arrows="1" fold="1" page="1" pageScale="1" pageWidth="1100" pageHeight="850" math="0" shadow="0">
      <root>
        <mxCell id="0" />
        <mxCell id="1" parent="0" />
        <mxCell id="t1NXMLt-jvlbNoCUIiNC-1" value="BoardViewController" style="rounded=0;whiteSpace=wrap;html=1;" parent="1" vertex="1">
          <mxGeometry x="140" y="110" width="120" height="40" as="geometry" />
        </mxCell>
        <mxCell id="t1NXMLt-jvlbNoCUIiNC-2" value="Service" style="rounded=0;whiteSpace=wrap;html=1;" parent="1" vertex="1">
          <mxGeometry x="340" y="110" width="130" height="40" as="geometry" />
        </mxCell>
        <mxCell id="t1NXMLt-jvlbNoCUIiNC-3" value="Dao" style="rounded=0;whiteSpace=wrap;html=1;" parent="1" vertex="1">
          <mxGeometry x="590" y="110" width="130" height="40" as="geometry" />
        </mxCell>
        <mxCell id="t1NXMLt-jvlbNoCUIiNC-4" value="" style="endArrow=none;dashed=1;html=1;" parent="1" edge="1">
          <mxGeometry width="50" height="50" relative="1" as="geometry">
            <mxPoint x="199.5" y="180" as="sourcePoint" />
            <mxPoint x="199.5" y="150" as="targetPoint" />
          </mxGeometry>
        </mxCell>
        <mxCell id="t1NXMLt-jvlbNoCUIiNC-5" value="" style="endArrow=none;dashed=1;html=1;" parent="1" target="t1NXMLt-jvlbNoCUIiNC-11" edge="1">
          <mxGeometry width="50" height="50" relative="1" as="geometry">
            <mxPoint x="200" y="425" as="sourcePoint" />
            <mxPoint x="210" y="235" as="targetPoint" />
          </mxGeometry>
        </mxCell>
        <mxCell id="t1NXMLt-jvlbNoCUIiNC-6" value="" style="endArrow=none;dashed=1;html=1;entryX=0.5;entryY=1;entryDx=0;entryDy=0;" parent="1" source="t1NXMLt-jvlbNoCUIiNC-10" target="t1NXMLt-jvlbNoCUIiNC-2" edge="1">
          <mxGeometry width="50" height="50" relative="1" as="geometry">
            <mxPoint x="480" y="180" as="sourcePoint" />
            <mxPoint x="475" y="340" as="targetPoint" />
          </mxGeometry>
        </mxCell>
        <mxCell id="t1NXMLt-jvlbNoCUIiNC-7" value="" style="endArrow=none;dashed=1;html=1;entryX=0.5;entryY=1;entryDx=0;entryDy=0;" parent="1" source="t1NXMLt-jvlbNoCUIiNC-41" target="t1NXMLt-jvlbNoCUIiNC-3" edge="1">
          <mxGeometry width="50" height="50" relative="1" as="geometry">
            <mxPoint x="790" y="415" as="sourcePoint" />
            <mxPoint x="560" y="160" as="targetPoint" />
          </mxGeometry>
        </mxCell>
        <mxCell id="t1NXMLt-jvlbNoCUIiNC-8" value="" style="endArrow=none;dashed=1;html=1;entryX=0.56;entryY=1.025;entryDx=0;entryDy=0;entryPerimeter=0;" parent="1" source="t1NXMLt-jvlbNoCUIiNC-39" target="t1NXMLt-jvlbNoCUIiNC-10" edge="1">
          <mxGeometry width="50" height="50" relative="1" as="geometry">
            <mxPoint x="480" y="425" as="sourcePoint" />
            <mxPoint x="480" y="220" as="targetPoint" />
          </mxGeometry>
        </mxCell>
        <mxCell id="t1NXMLt-jvlbNoCUIiNC-11" value="" style="html=1;points=[];perimeter=orthogonalPerimeter;" parent="1" vertex="1">
          <mxGeometry x="195" y="180" width="10" height="150" as="geometry" />
        </mxCell>
        <mxCell id="t1NXMLt-jvlbNoCUIiNC-16" value="" style="html=1;verticalAlign=bottom;endArrow=block;exitX=0;exitY=0.885;exitDx=0;exitDy=0;exitPerimeter=0;" parent="1" source="t1NXMLt-jvlbNoCUIiNC-10" target="t1NXMLt-jvlbNoCUIiNC-11" edge="1">
          <mxGeometry x="0.0348" y="-3" width="80" relative="1" as="geometry">
            <mxPoint x="473" y="216" as="sourcePoint" />
            <mxPoint x="250" y="216" as="targetPoint" />
            <mxPoint as="offset" />
          </mxGeometry>
        </mxCell>
        <mxCell id="t1NXMLt-jvlbNoCUIiNC-39" value="" style="html=1;points=[];perimeter=orthogonalPerimeter;" parent="1" vertex="1">
          <mxGeometry x="400" y="235" width="10" height="40" as="geometry" />
        </mxCell>
        <mxCell id="t1NXMLt-jvlbNoCUIiNC-40" value="" style="endArrow=none;dashed=1;html=1;entryX=0.5;entryY=1;entryDx=0;entryDy=0;" parent="1" target="t1NXMLt-jvlbNoCUIiNC-39" edge="1" source="IkbPE3b386Il1y5BWXdk-5">
          <mxGeometry width="50" height="50" relative="1" as="geometry">
            <mxPoint x="405" y="425" as="sourcePoint" />
            <mxPoint x="480" y="220" as="targetPoint" />
          </mxGeometry>
        </mxCell>
        <mxCell id="t1NXMLt-jvlbNoCUIiNC-41" value="" style="html=1;points=[];perimeter=orthogonalPerimeter;" parent="1" vertex="1">
          <mxGeometry x="650" y="235" width="10" height="40" as="geometry" />
        </mxCell>
        <mxCell id="t1NXMLt-jvlbNoCUIiNC-42" value="" style="endArrow=none;dashed=1;html=1;entryX=0.5;entryY=1;entryDx=0;entryDy=0;" parent="1" target="t1NXMLt-jvlbNoCUIiNC-41" edge="1" source="IkbPE3b386Il1y5BWXdk-7">
          <mxGeometry width="50" height="50" relative="1" as="geometry">
            <mxPoint x="655" y="430" as="sourcePoint" />
            <mxPoint x="790" y="150" as="targetPoint" />
          </mxGeometry>
        </mxCell>
        <mxCell id="t1NXMLt-jvlbNoCUIiNC-10" value="" style="html=1;points=[];perimeter=orthogonalPerimeter;" parent="1" vertex="1">
          <mxGeometry x="400" y="180" width="10" height="40" as="geometry" />
        </mxCell>
        <mxCell id="t1NXMLt-jvlbNoCUIiNC-45" value="getBoardno(HttpServletRequest req)" style="html=1;verticalAlign=bottom;endArrow=block;exitX=0.98;exitY=0.137;exitDx=0;exitDy=0;exitPerimeter=0;" parent="1" target="t1NXMLt-jvlbNoCUIiNC-10" edge="1" source="t1NXMLt-jvlbNoCUIiNC-11">
          <mxGeometry x="-0.0578" width="80" relative="1" as="geometry">
            <mxPoint x="246" y="191.99999999999977" as="sourcePoint" />
            <mxPoint x="476" y="191.99999999999977" as="targetPoint" />
            <mxPoint as="offset" />
          </mxGeometry>
        </mxCell>
        <mxCell id="t1NXMLt-jvlbNoCUIiNC-52" value="view(Board boardnum)" style="html=1;verticalAlign=bottom;endArrow=block;entryX=0.02;entryY=0.24;entryDx=0;entryDy=0;entryPerimeter=0;" parent="1" target="t1NXMLt-jvlbNoCUIiNC-39" edge="1" source="t1NXMLt-jvlbNoCUIiNC-11">
          <mxGeometry x="-0.0578" width="80" relative="1" as="geometry">
            <mxPoint x="247" y="245" as="sourcePoint" />
            <mxPoint x="400" y="249" as="targetPoint" />
            <mxPoint as="offset" />
          </mxGeometry>
        </mxCell>
        <mxCell id="t1NXMLt-jvlbNoCUIiNC-53" value="" style="html=1;verticalAlign=bottom;endArrow=block;" parent="1" source="t1NXMLt-jvlbNoCUIiNC-39" target="t1NXMLt-jvlbNoCUIiNC-11" edge="1">
          <mxGeometry x="0.0348" y="-3" width="80" relative="1" as="geometry">
            <mxPoint x="380" y="305" as="sourcePoint" />
            <mxPoint x="260" y="305" as="targetPoint" />
            <mxPoint as="offset" />
            <Array as="points">
              <mxPoint x="340" y="270" />
            </Array>
          </mxGeometry>
        </mxCell>
        <mxCell id="IkbPE3b386Il1y5BWXdk-4" value="board" style="edgeLabel;html=1;align=center;verticalAlign=middle;resizable=0;points=[];" vertex="1" connectable="0" parent="t1NXMLt-jvlbNoCUIiNC-53">
          <mxGeometry x="-0.0462" relative="1" as="geometry">
            <mxPoint x="-7" y="-10" as="offset" />
          </mxGeometry>
        </mxCell>
        <mxCell id="t1NXMLt-jvlbNoCUIiNC-55" value="int boardno" style="text;html=1;align=center;verticalAlign=middle;resizable=0;points=[];autosize=1;" parent="1" vertex="1">
          <mxGeometry x="260" y="195" width="80" height="20" as="geometry" />
        </mxCell>
        <mxCell id="t1NXMLt-jvlbNoCUIiNC-56" value="selectBoardByBoardno(Board boardnum)" style="html=1;verticalAlign=bottom;endArrow=block;exitX=1.22;exitY=0.22;exitDx=0;exitDy=0;exitPerimeter=0;" parent="1" source="t1NXMLt-jvlbNoCUIiNC-39" target="t1NXMLt-jvlbNoCUIiNC-41" edge="1">
          <mxGeometry x="-0.0578" width="80" relative="1" as="geometry">
            <mxPoint x="409" y="251" as="sourcePoint" />
            <mxPoint x="410" y="259" as="targetPoint" />
            <mxPoint as="offset" />
          </mxGeometry>
        </mxCell>
        <mxCell id="t1NXMLt-jvlbNoCUIiNC-62" value="" style="html=1;verticalAlign=bottom;endArrow=block;entryX=1.14;entryY=0.78;entryDx=0;entryDy=0;entryPerimeter=0;" parent="1" edge="1">
          <mxGeometry x="0.0348" y="-3" width="80" relative="1" as="geometry">
            <mxPoint x="650" y="269" as="sourcePoint" />
            <mxPoint x="411.4" y="269.20000000000005" as="targetPoint" />
            <mxPoint as="offset" />
            <Array as="points">
              <mxPoint x="580" y="269" />
            </Array>
          </mxGeometry>
        </mxCell>
        <mxCell id="IkbPE3b386Il1y5BWXdk-3" value="viewBoard" style="edgeLabel;html=1;align=center;verticalAlign=middle;resizable=0;points=[];" vertex="1" connectable="0" parent="t1NXMLt-jvlbNoCUIiNC-62">
          <mxGeometry x="-0.0847" y="1" relative="1" as="geometry">
            <mxPoint x="-11" y="-12.2" as="offset" />
          </mxGeometry>
        </mxCell>
        <mxCell id="IkbPE3b386Il1y5BWXdk-5" value="" style="html=1;points=[];perimeter=orthogonalPerimeter;" vertex="1" parent="1">
          <mxGeometry x="400" y="290" width="10" height="40" as="geometry" />
        </mxCell>
        <mxCell id="IkbPE3b386Il1y5BWXdk-6" value="" style="endArrow=none;dashed=1;html=1;entryX=0.5;entryY=1;entryDx=0;entryDy=0;" edge="1" parent="1" target="IkbPE3b386Il1y5BWXdk-5">
          <mxGeometry width="50" height="50" relative="1" as="geometry">
            <mxPoint x="405" y="425" as="sourcePoint" />
            <mxPoint x="405" y="275" as="targetPoint" />
          </mxGeometry>
        </mxCell>
        <mxCell id="IkbPE3b386Il1y5BWXdk-7" value="" style="html=1;points=[];perimeter=orthogonalPerimeter;" vertex="1" parent="1">
          <mxGeometry x="650" y="290" width="10" height="40" as="geometry" />
        </mxCell>
        <mxCell id="IkbPE3b386Il1y5BWXdk-8" value="" style="endArrow=none;dashed=1;html=1;entryX=0.5;entryY=1;entryDx=0;entryDy=0;" edge="1" parent="1" target="IkbPE3b386Il1y5BWXdk-7">
          <mxGeometry width="50" height="50" relative="1" as="geometry">
            <mxPoint x="655" y="430" as="sourcePoint" />
            <mxPoint x="655" y="275" as="targetPoint" />
          </mxGeometry>
        </mxCell>
        <mxCell id="IkbPE3b386Il1y5BWXdk-9" value="updateHit(board boardnum)" style="html=1;verticalAlign=bottom;endArrow=block;exitX=1.22;exitY=0.22;exitDx=0;exitDy=0;exitPerimeter=0;" edge="1" parent="1">
          <mxGeometry x="-0.0578" width="80" relative="1" as="geometry">
            <mxPoint x="412.20000000000005" y="299.99999999999994" as="sourcePoint" />
            <mxPoint x="650" y="299.99999999999994" as="targetPoint" />
            <mxPoint as="offset" />
          </mxGeometry>
        </mxCell>
      </root>
    </mxGraphModel>
  </diagram>
</mxfile>
